<?xml version="1.0" encoding="UTF-8" standalone="no" ?>
<!DOCTYPE svg PUBLIC "-//W3C//DTD SVG 1.1//EN" "http://www.w3.org/Graphics/SVG/1.1/DTD/svg11.dtd">
<svg xmlns="http://www.w3.org/2000/svg" xmlns:xlink="http://www.w3.org/1999/xlink" version="1.1" width="279.485986328125" height="135.1248" xml:space="preserve">
<desc>Created with Fabric.js 1.6.0-rc.1</desc>
<defs></defs>
<g style="stroke: none; stroke-width: 1; stroke-dasharray: none; stroke-linecap: butt; stroke-linejoin: miter; stroke-miterlimit: 10; fill: none; fill-rule: nonzero; opacity: 1;" transform="translate(10.000000000000007 10) scale(1.98 1.98)" >
  <polygon points="53.06,24.76 43.06,24.76 17.06,24.76 7.06,24.76 3.4,53.76 56.17,53.76 " style="stroke: none; stroke-width: 1; stroke-dasharray: none; stroke-linecap: butt; stroke-linejoin: miter; stroke-miterlimit: 10; fill: #FFFFFF; fill-rule: nonzero; opacity: 1;" transform="  matrix(1 0 0 1 0 0) "/>
  <path d="M 53.057 24.76 l 3.114 29 H 3.402 l 3.655 -29 h 10 h 26 H 53.057 M 55.752 21.76 h -2.695 h -10 h -26 h -10 H 4.411 L 4.08 24.385 l -3.655 29 L 0 56.76 h 3.402 h 52.769 h 3.339 l -0.357 -3.32 l -3.114 -29 L 55.752 21.76 L 55.752 21.76 z" style="stroke: none; stroke-width: 1; stroke-dasharray: none; stroke-linecap: butt; stroke-linejoin: miter; stroke-miterlimit: 10; fill: #f0ca09; fill-rule: nonzero; opacity: 1;" transform=" matrix(1 0 0 1 0 0) " stroke-linecap="round" />
  <path d="M 13.684 49.76 c -0.257 0 -0.513 -0.016 -0.769 -0.047 c -0.218 -0.026 -0.438 -0.067 -0.653 -0.124 c -0.535 -0.138 -0.856 -0.684 -0.718 -1.218 c 0.138 -0.535 0.683 -0.86 1.218 -0.718 c 0.132 0.033 0.264 0.059 0.396 0.075 c 0.403 0.05 0.811 0.037 1.215 -0.015 c 0.552 -0.065 1.049 0.319 1.117 0.867 c 0.069 0.548 -0.319 1.048 -0.867 1.117 C 14.31 49.738 13.995 49.76 13.684 49.76 z M 18.334 48.602 c -0.401 0 -0.779 -0.243 -0.933 -0.64 c -0.199 -0.516 0.058 -1.095 0.572 -1.293 c 0.592 -0.229 1.188 -0.483 1.774 -0.759 c 0.503 -0.235 1.096 -0.019 1.33 0.48 c 0.234 0.5 0.02 1.096 -0.48 1.33 c -0.628 0.295 -1.269 0.568 -1.903 0.813 C 18.576 48.581 18.454 48.602 18.334 48.602 z M 9.987 46.87 c -0.507 0 -0.941 -0.384 -0.994 -0.898 c -0.02 -0.197 -0.028 -0.395 -0.028 -0.592 c 0 -0.116 0.003 -0.232 0.009 -0.347 c 0.023 -0.469 0.099 -0.942 0.225 -1.406 c 0.144 -0.535 0.697 -0.853 1.226 -0.704 c 0.533 0.144 0.849 0.692 0.704 1.226 c -0.088 0.326 -0.141 0.657 -0.156 0.983 c -0.004 0.082 -0.007 0.165 -0.007 0.248 c 0 0.129 0.005 0.26 0.019 0.389 c 0.056 0.55 -0.345 1.04 -0.894 1.097 C 10.055 46.868 10.021 46.87 9.987 46.87 z M 23.666 45.871 c -0.327 0 -0.648 -0.16 -0.84 -0.455 c -0.301 -0.464 -0.169 -1.083 0.294 -1.384 c 0.535 -0.347 1.066 -0.72 1.58 -1.107 c 0.444 -0.332 1.068 -0.241 1.401 0.196 c 0.332 0.441 0.244 1.068 -0.196 1.401 c -0.552 0.415 -1.122 0.815 -1.695 1.188 C 24.041 45.819 23.853 45.871 23.666 45.871 z M 28.425 42.221 c -0.309 0 -0.613 -0.143 -0.81 -0.411 c -0.325 -0.446 -0.227 -1.072 0.22 -1.397 c 0.209 -0.151 0.422 -0.3 0.641 -0.441 c 0.377 -0.245 0.781 -0.477 1.2 -0.688 c 0.496 -0.247 1.095 -0.048 1.343 0.444 c 0.248 0.493 0.049 1.095 -0.444 1.343 c -0.354 0.178 -0.693 0.372 -1.01 0.577 c -0.188 0.123 -0.372 0.25 -0.552 0.382 C 28.835 42.159 28.629 42.221 28.425 42.221 z M 12.469 41.748 c -0.355 0 -0.699 -0.189 -0.88 -0.523 c -0.264 -0.485 -0.083 -1.092 0.402 -1.355 c 0.518 -0.281 1.071 -0.456 1.644 -0.52 c 0.29 -0.033 0.593 -0.032 0.891 0.008 c 0.547 0.072 0.933 0.574 0.86 1.122 c -0.072 0.546 -0.561 0.931 -1.122 0.86 c -0.133 -0.018 -0.271 -0.018 -0.406 -0.002 c -0.316 0.034 -0.623 0.132 -0.913 0.289 C 12.793 41.709 12.63 41.748 12.469 41.748 z M 33.903 39.896 c -0.462 0 -0.877 -0.321 -0.977 -0.791 c -0.115 -0.541 0.229 -1.072 0.769 -1.187 c 0.643 -0.138 1.335 -0.252 2.058 -0.342 c 0.553 -0.081 1.047 0.32 1.115 0.869 c 0.068 0.548 -0.321 1.048 -0.869 1.115 c -0.665 0.083 -1.3 0.188 -1.886 0.313 C 34.042 39.889 33.972 39.896 33.903 39.896 z M 39.863 39.279 c -0.533 0 -0.977 -0.421 -0.998 -0.959 c -0.022 -0.552 0.406 -1.018 0.958 -1.04 l 1.993 -0.082 c 0.55 -0.05 1.02 0.401 1.045 0.954 c 0.025 0.551 -0.402 1.019 -0.954 1.044 l -2.002 0.082 C 39.892 39.279 39.877 39.279 39.863 39.279 z M 45.842 38.836 c -0.465 0 -0.881 -0.325 -0.979 -0.798 c -0.111 -0.541 0.236 -1.07 0.777 -1.182 c 0.578 -0.119 1.006 -0.286 1.347 -0.525 c 0.437 -0.341 1.102 -0.285 1.438 0.149 c 0.339 0.437 0.296 1.039 -0.14 1.378 c -0.055 0.042 -0.11 0.083 -0.169 0.122 c -0.544 0.384 -1.229 0.661 -2.072 0.835 C 45.977 38.829 45.908 38.836 45.842 38.836 z M 49.911 34.806 c -0.098 0 -0.197 -0.015 -0.296 -0.045 c -0.527 -0.163 -0.823 -0.724 -0.659 -1.251 c 0.053 -0.171 0.086 -0.341 0.097 -0.506 l 0.004 -0.116 c 0 -0.229 -0.044 -0.462 -0.13 -0.694 c -0.192 -0.518 0.071 -1.093 0.59 -1.285 c 0.514 -0.191 1.094 0.071 1.285 0.59 c 0.169 0.455 0.255 0.923 0.255 1.39 c 0 0.084 -0.003 0.167 -0.008 0.25 c -0.022 0.324 -0.084 0.646 -0.183 0.964 C 50.734 34.531 50.338 34.806 49.911 34.806 z M 44.851 30.699 c -0.436 0 -0.837 -0.287 -0.961 -0.729 c -0.15 -0.531 0.158 -1.084 0.69 -1.233 c 0.779 -0.22 1.597 -0.286 2.386 -0.18 c 0.547 0.074 0.931 0.577 0.857 1.125 c -0.073 0.547 -0.566 0.931 -1.125 0.857 c -0.521 -0.069 -1.058 -0.023 -1.575 0.121 C 45.032 30.687 44.942 30.699 44.851 30.699 z" style="stroke: none; stroke-width: 1; stroke-dasharray: none; stroke-linecap: butt; stroke-linejoin: miter; stroke-miterlimit: 10; fill: #2bb34b; fill-rule: nonzero; opacity: 1;" transform=" matrix(1 0 0 1 0 0) " stroke-linecap="round" />
  <path d="M 40.844 11.931 C 40.32 7.932 38.23 2.75 30.022 2.75 c -8.207 0 -10.298 5.182 -10.822 9.181 c -0.287 2.192 -0.126 4.419 0.33 6.582 c 2.509 11.893 8.71 19.022 10.177 20.577 c 0.172 0.182 0.458 0.182 0.63 0 c 1.467 -1.555 7.668 -8.684 10.177 -20.577 C 40.971 16.35 41.132 14.123 40.844 11.931 z M 30.022 19.672 c -3.505 0 -6.346 -2.841 -6.346 -6.346 c 0 -3.505 2.841 -6.345 6.346 -6.345 c 3.505 0 6.346 2.841 6.346 6.345 C 36.368 16.831 33.527 19.672 30.022 19.672 z" style="stroke: none; stroke-width: 1; stroke-dasharray: none; stroke-linecap: butt; stroke-linejoin: miter; stroke-miterlimit: 10; fill: #DD352E; fill-rule: nonzero; opacity: 1;" transform=" matrix(1 0 0 1 0 0) " stroke-linecap="round" />
  <path d="M 30.023 5.981 c -4.051 0 -7.346 3.295 -7.346 7.345 c 0 4.051 3.295 7.346 7.346 7.346 s 7.346 -3.295 7.346 -7.346 C 37.368 9.276 34.073 5.981 30.023 5.981 z M 30.023 18.672 c -2.947 0 -5.346 -2.398 -5.346 -5.346 s 2.398 -5.345 5.346 -5.345 s 5.346 2.397 5.346 5.345 S 32.97 18.672 30.023 18.672 z" style="stroke: none; stroke-width: 1; stroke-dasharray: none; stroke-linecap: butt; stroke-linejoin: miter; stroke-miterlimit: 10; fill: #B02721; fill-rule: nonzero; opacity: 1;" transform=" matrix(1 0 0 1 0 0) " stroke-linecap="round" />
</g>
  <g transform="translate(202.82 89.12) scale(1.4 1.4)">
   <text font-family="Masque" font-size="40" font-weight="bold" style="stroke: none; stroke-width: 1; stroke-dasharray: none; stroke-linecap: butt; stroke-linejoin: miter; stroke-miterlimit: 10; fill: #f2eff2; fill-rule: nonzero; opacity: 1;" ><tspan x="-48.12" y="8.98" style="stroke: none; stroke-width: 0; stroke-dasharray: none; stroke-linecap: butt; stroke-linejoin: miter; stroke-miterlimit: 4; fill: #f2eff2; fill-rule: ; opacity: 1;">p</tspan><tspan x="-17.44" y="8.98" style="stroke: none; stroke-width: 0; stroke-dasharray: none; stroke-linecap: butt; stroke-linejoin: miter; stroke-miterlimit: 4; fill: #f2eff2; fill-rule: ; opacity: 1;">t</tspan><tspan x="9.48" y="8.98" style="stroke: none; stroke-width: 0; stroke-dasharray: none; stroke-linecap: butt; stroke-linejoin: miter; stroke-miterlimit: 4; fill: #f2eff2; fill-rule: ; opacity: 1;">m</tspan></text>
 </g>
</svg>